<?xml version="1.0" encoding="UTF-8" standalone="no"?>
<svg
   xmlns:dc="http://purl.org/dc/elements/1.1/"
   xmlns:cc="http://creativecommons.org/ns#"
   xmlns:rdf="http://www.w3.org/1999/02/22-rdf-syntax-ns#"
   xmlns:svg="http://www.w3.org/2000/svg"
   xmlns="http://www.w3.org/2000/svg"
   xmlns:sodipodi="http://sodipodi.sourceforge.net/DTD/sodipodi-0.dtd"
   xmlns:inkscape="http://www.inkscape.org/namespaces/inkscape"
   id="Слой_1"
   version="1.1"
   viewBox="0 0 640 640"
   xml:space="preserve"
   sodipodi:docname="purple_emu.svg"
   width="640"
   height="640"><metadata
     id="metadata9"><rdf:RDF><cc:Work
         rdf:about=""><dc:format>image/svg+xml</dc:format><dc:type
           rdf:resource="http://purl.org/dc/dcmitype/StillImage" /><dc:title></dc:title></cc:Work></rdf:RDF></metadata><defs
     id="defs7" /><sodipodi:namedview
     pagecolor="#ffffff"
     bordercolor="#666666"
     borderopacity="1"
     objecttolerance="10"
     gridtolerance="10"
     guidetolerance="10"
     id="namedview5"
     showgrid="false"/><path
     style="fill:#cc00ff;stroke:#ffffff;stroke-width:0.282353"
     d="m 258.95518,601.4024 c 5.91936,-6.01115 13.72271,-10.17699 22.55608,-12.04162 3.92585,-0.82869 8.76356,-2.87003 13.50277,-5.69766 9.65719,-5.76192 25.59455,-13.76291 39.67371,-19.91728 10.59919,-4.63319 11.51142,-5.2466 14.82583,-9.96933 8.689,-12.38104 22.59855,-43.0591 27.88569,-61.50296 5.3392,-18.6255 6.78927,-41.06011 3.52832,-54.58824 -3.97655,-16.4968 -18.61016,-40.08778 -34.53847,-55.67978 -5.73245,-5.61142 -12.34689,-12.74375 -14.69876,-15.84963 -5.38626,-7.1131 -10.81034,-17.84403 -13.50689,-26.7218 -1.99333,-6.56263 -2.19348,-6.84037 -4.55504,-6.32092 -22.72675,4.99891 -41.60788,6.52719 -73.63402,5.96011 -22.16472,-0.39246 -28.20657,-0.80009 -35.44996,-2.39174 -34.4507,-7.57016 -55.33364,-23.00855 -69.61729,-51.46683 -10.66549,-21.24958 -18.23763,-59.59137 -16.85365,-85.33902 1.38046,-25.68222 8.69985,-55.65752 18.18766,-74.48447 1.25542,-2.49116 2.66674,-5.5398 3.13627,-6.77476 l 0.85369,-2.24538 -7.72287,0.53798 c -4.24758,0.29589 -10.77328,0.0615 -14.50157,-0.52093 -7.75881,-1.21202 -23.401348,-6.58412 -22.235338,-7.63625 0.42831,-0.38648 4.802278,-1.66291 9.719918,-2.83652 4.91765,-1.1736 9.57648,-2.47596 10.35295,-2.89413 0.77647,-0.41816 -11.89086,-0.67805 -28.149618,-0.57752 -22.741283,0.14061 -29.652393,-0.0852 -29.955853,-0.97888 -1.00129,-2.948711 27.772403,-18.537801 40.348263,-21.859991 l 8.042118,-2.12451 1.20472,-4.70058 c 2.28046,-8.89789 7.48159,-17.74493 14.55485,-24.75759 10.56587,-10.47535 20.43692,-14.61371 34.93979,-14.64823 9.40261,-0.0224 15.21813,1.24512 22.76956,4.96268 7.87393,3.87632 14.56281,10.76093 18.81593,19.36653 3.30897,6.69525 3.46504,7.45591 3.78029,18.42405 0.30052,10.45541 0.20337,11.28317 -1.12826,9.61353 -0.8014,-1.00482 -1.45709,-2.16953 -1.45709,-2.58824 0,-0.41871 -0.32175,-0.76129 -0.71499,-0.76129 -0.39325,0 -2.3682,6.45883 -4.38879,14.35294 -2.02059,7.894121 -3.82086,14.533791 -4.00061,14.754831 -0.17975,0.22103 -0.88714,-0.3644 -1.57198,-1.30097 -1.19064,-1.62831 -1.35553,-1.63052 -3.76697,-0.0505 -6.90256,4.52273 -19.70787,26.57066 -25.51991,43.9397 -8.69831,25.99451 -7.93667,48.73244 2.34769,70.08822 9.92651,20.61266 24.4954,22.19323 48.43909,5.25516 8.67922,-6.13979 28.61592,-24.56155 40.84015,-37.73682 5.37974,-5.79827 12.94872,-13.09034 16.81996,-16.20459 11.86332,-9.54355 26.61129,-15.81651 41.00879,-17.44283 4.91323,-0.555 5.64101,-0.45266 4.75246,0.66827 -3.71138,4.68195 -12.61581,17.145 -12.39462,17.34806 0.14706,0.13503 5.65641,-2.39436 12.243,-5.62084 18.05993,-8.84677 43.25468,-16.4496 54.68162,-16.50088 6.26034,-0.028 5.66589,1.97168 -2.36673,7.96197 -3.45764,2.57852 -6.14071,4.83413 -5.96239,5.01245 0.17833,0.17833 4.91569,-0.87255 10.52746,-2.33527 9.43563,-2.45943 11.47777,-2.65493 27.14442,-2.59854 14.40097,0.0519 18.07015,0.37068 24.47059,2.1264 14.11127,3.87093 37.17647,16.7264 37.17647,20.72045 0,1.74697 -5.81964,2.18648 -14.58824,1.10173 -4.65882,-0.57635 -9.52941,-1.29738 -10.82353,-1.60231 -3.76531,-0.88719 -1.83771,0.37777 7.50448,4.92471 12.66254,6.16299 21.54289,12.68313 31.36586,23.02948 21.05261,22.17433 31.64077,52.65596 30.63236,88.18566 l -0.32623,11.49417 13.93319,7.02613 c 29.06657,14.65753 49.78504,31.12573 61.11757,48.57966 6.33677,9.75966 5.47969,11.47733 -4.22566,8.46863 -9.53456,-2.95574 -42.22443,-20.54259 -62.5898,-33.67275 -1.16471,-0.75092 -2.1053,-0.99895 -2.09021,-0.55118 0.0151,0.44777 2.64932,2.71842 5.85386,5.04589 8.39862,6.09995 22.61188,19.96873 29.48996,28.77521 9.42192,12.06355 19.11617,29.80726 21.44363,39.24899 2.33214,9.46072 -14.06245,-2.02701 -42.35622,-29.67912 -7.95227,-7.77193 -14.45867,-13.67002 -14.45867,-13.10688 0,0.56315 1.27566,2.91408 2.83481,5.2243 8.24828,12.22162 11.58669,37.30574 4.96496,37.30574 -4.57104,0 -20.58658,-21.12578 -37.54047,-49.51885 l -7.36979,-12.34236 -8.97417,-0.59454 c -19.81759,-1.31292 -43.06199,-9.33449 -59.63493,-20.57985 -3.01637,-2.04671 -5.71752,-3.48808 -6.00256,-3.20304 -0.28503,0.28504 4.08879,19.0396 9.7196,41.67679 10.10335,40.61783 10.28253,41.203 13.63952,44.54228 8.35896,8.31487 9.41482,17.60851 3.10312,27.31368 -1.17826,1.81177 -13.78435,31.89271 -28.01353,66.84654 l -25.87122,63.55241 1.17827,6.27002 c 1.13785,6.05498 1.48226,6.59973 10.04209,15.88373 l 8.86383,9.6137 -4.23447,-0.58689 c -2.32896,-0.3228 -6.98741,-0.87339 -10.35212,-1.22353 -3.3647,-0.35015 -8.40748,-1.42054 -11.20616,-2.37866 -4.32232,-1.47972 -8.07783,-1.74168 -24.94118,-1.73975 l -19.85266,0.002 -11.29412,4.22161 -11.29411,4.22161 -21.61491,0.0114 -21.61491,0.0114 5.14432,-5.22408 z M 487.00529,298.1559 c -5.98841,-14.39021 -20.38503,-34.46498 -34.02593,-47.44608 -22.29005,-21.21187 -47.61484,-31.81543 -79.70339,-33.372 -17.10909,-0.82994 -35.29412,1.66609 -35.29412,4.84438 0,1.59212 0.0526,1.60526 18.79854,4.70118 25.79229,4.25963 41.47157,8.98487 60.73087,18.30233 13.37198,6.46923 27.82107,15.81713 39.52942,25.57371 8.3084,6.92341 29.64706,28.62448 29.64706,30.15059 0,0.42642 0.40192,0.7753 0.89314,0.7753 0.49124,0 0.23222,-1.58823 -0.57559,-3.52941 z m -97.25873,-30.20707 c 0,-3.89905 -28.18418,-15.70807 -46.11765,-19.32305 -13.40055,-2.70125 -27.20386,-3.6827 -42.35294,-3.01141 -15.33689,0.67962 -24.02752,1.74504 -21.64706,2.65381 0.77647,0.29642 9.0353,1.66818 18.35294,3.04836 17.40402,2.57796 41.15883,7.19573 70.11765,13.63038 16.82946,3.7395 21.64706,4.40759 21.64706,3.00191 z"
     id="path834" /></svg>
