<?xml version="1.0" ?><svg id="Слой_1" style="enable-background:new 0 0 800 800;" version="1.1" viewBox="0 0 800 800" xml:space="preserve" xmlns="http://www.w3.org/2000/svg" xmlns:xlink="http://www.w3.org/1999/xlink"><path d="M139.85,215.45c18.72-0.43,37.44-0.86,56.15-1.28c-7.75,1.94-15.49,3.87-23.24,5.81c4.37,2.45,10.22,5.14,17.43,6.97  c12.27,3.12,22.82,2.33,29.39,1.27c-10.13,20.07-30.3,67.55-18.87,124.56c4.28,21.36,10.68,53.28,37.75,75.49  c31.28,25.67,73.46,24.14,107.45,22.94c20.96-0.74,38.16-3.89,49.82-6.58c1.88,8.04,5.62,19.7,13.84,31.46  c7.95,11.36,14.71,15.13,23.91,25.16c0,0,13.53,14.78,23.91,39c12.59,29.4,0.74,80.09-31.3,129.42c-7.43,2.95-15.15,6.27-23.1,10.03  c-13.79,6.52-26.23,13.39-37.33,20.18c-4.05,0.25-12.43,1.32-20.92,6.97c-5.89,3.92-9.56,8.54-11.62,11.62h44.16  c7.36-2.71,14.72-5.42,22.08-8.13c11.87,0.02,28.61,0.05,40.48,0.07c2.6,0.97,5.19,1.93,7.79,2.9c7.93,0.95,15.85,1.9,23.78,2.85  c-6.21-6.74-12.41-13.49-18.62-20.24c-0.79-4.36-1.39-7.71-2.18-12.08c17.39-42.68,34.78-85.37,52.17-128.05  c1.07-1.14,6.09-6.74,5.81-15.11c-0.37-11.07-9.71-16.98-10.46-17.43l-20.92-83.67c7.51,5.54,18.54,12.43,33.01,17.62  c16.7,5.99,31.48,7.39,41.52,7.55c19.04,32.82,39.53,64.65,46.55,61.65c2.52-1.08,2.52-6.31,2.52-11.32  c-0.01-13.16-5.8-24-11.78-31.71c26.22,26.35,52.41,50.6,57.07,46.81c2.08-1.69-0.81-8.37-3.77-15.1  c-5.92-13.44-19.78-38.45-52.85-61.65c31.41,19.42,68.64,40.86,72.98,35.23c0.73-0.94,0.86-3.06-3.77-10.07  c-19.03-28.77-57.29-47.45-75.49-55.36c1.06-8.88,6.65-63.35-31.46-101.92c-13.36-13.52-28.03-20.98-39-25.16  c20.35,3.55,26.31,2.66,27,0.63c1.38-4.03-17.03-15.44-34.55-20.77c-11.4-3.46-33.95-7.85-65.43,2.52  c12.12-7.79,14.46-11.09,13.84-12.58c-1.72-4.16-27.65,3.06-30.2,3.77c-17.28,4.87-31.21,11.63-41.52,17.62  c4.61-6.29,9.23-12.58,13.84-18.87c-7.02,0.29-17.5,1.51-28.94,6.29c-16.53,6.91-25.72,17.35-34.19,26.09  c-23.4,24.16-54.77,57.1-75.01,50.42c-11.93-3.94-16.93-18.51-19.75-26.73c-16.41-47.8,23.89-105.55,30.21-103.42  c0.98,0.33,1.78,2.3,1.16,9.3c3.1-12.01,6.2-24.02,9.3-36.02c1.16,1.94,2.32,3.87,3.49,5.81c0.79-3.54,4.64-22.46-6.97-38.35  c-13.26-18.13-39-21.83-58.1-13.94c-25.67,10.59-31.02,38.65-31.37,40.67c-5.43,1.07-11.86,2.8-18.81,5.65  c-7.66,3.15-13.05,6.47-18.87,10.07c-2.93,1.81-6.15,3.91-9.6,6.34C136.14,212.15,137.25,215.51,139.85,215.45z M493.49,337.34  c44.2,17.01,66.07,57.51,74.37,75.53c-16.49-20.31-41.59-44.9-77.86-60.43c-38.44-16.46-72.28-15.39-72.05-18.59  C418.2,330.45,456.82,323.22,493.49,337.34z M447.01,367.55c8.65,3.39,22.67,9.86,22.08,11.62c-0.66,1.97-19.3-3.07-43-8.13  c-18.47-3.95-41.15-8.15-67.4-11.62C400.6,353.32,429.63,360.74,447.01,367.55z"/></svg>